<svg xmlns="http://www.w3.org/2000/svg" viewBox="0 0 14 14">
	<path d="M2.8,12.6c0,0.4,0.1,0.7,0.4,1c0.3,0.3,0.6,0.4,1,0.4c0.8,0,1.4-0.6,1.4-1.4c0-0.8-0.6-1.4-1.4-1.4c0,0,0,0,0,0c-0.4,0-0.7,0.1-1,0.4C3,11.9,2.8,12.2,2.8,12.6z M0,1.4h1.4l2.5,5.3L3,8.4C2.9,8.6,2.8,8.9,2.8,9.1c0,0.4,0.1,0.7,0.4,1c0.3,0.3,0.6,0.4,1,0.4h8.4V9.1H4.5c-0.1,0-0.2,0-0.2-0.1c0,0,0,0,0,0V8.8L5,7.7h5.2c0.5,0,1-0.3,1.2-0.7l2.5-4.5C14,2.3,14,2.2,14,2.1c0-0.2-0.1-0.4-0.2-0.5c-0.1-0.1-0.3-0.2-0.5-0.2H2.9L2.3,0H0L0,1.4L0,1.4z M9.8,12.6c0,0.4,0.1,0.7,0.4,1c0.3,0.3,0.6,0.4,1,0.4c0.8,0,1.4-0.6,1.4-1.4c0-0.8-0.6-1.4-1.4-1.4c0,0,0,0,0,0c-0.4,0-0.7,0.1-1,0.4C9.9,11.9,9.8,12.2,9.8,12.6z"/>
</svg>
