<svg xmlns="http://www.w3.org/2000/svg" viewBox="0 0 469.3 469.3">
	<g>
		<path d="M458.7,181.3c5.9,0,10.7-4.8,10.7-10.7s-4.8-10.7-10.7-10.7h-32v-42.7h32c5.9,0,10.7-4.8,10.7-10.7 S464.6,96,458.7,96h-32V85.3c0-23.5-19.1-42.7-42.7-42.7h-10.7v-32c0-5.9-4.8-10.7-10.7-10.7S352,4.8,352,10.7v32h-42.7v-32 c0-5.9-4.8-10.7-10.7-10.7S288,4.8,288,10.7v32h-42.7v-32c0-5.9-4.8-10.7-10.7-10.7S224,4.8,224,10.7v32h-42.7v-32 c0-5.9-4.8-10.7-10.7-10.7S160,4.8,160,10.7v32h-42.7v-32c0-5.9-4.8-10.7-10.7-10.7S96,4.8,96,10.7v32H85.3 c-23.5,0-42.7,19.1-42.7,42.7V96h-32C4.8,96,0,100.8,0,106.7s4.8,10.7,10.7,10.7h32V160h-32C4.8,160,0,164.8,0,170.7 s4.8,10.7,10.7,10.7h32V224h-32C4.8,224,0,228.8,0,234.7s4.8,10.7,10.7,10.7h32V288h-32C4.8,288,0,292.8,0,298.7 s4.8,10.7,10.7,10.7h32V352h-32C4.8,352,0,356.8,0,362.7s4.8,10.7,10.7,10.7h32V384c0,23.5,19.1,42.7,42.7,42.7H96v32 c0,5.9,4.8,10.7,10.7,10.7s10.7-4.8,10.7-10.7v-32H160v32c0,5.9,4.8,10.7,10.7,10.7s10.7-4.8,10.7-10.7v-32H224v32 c0,5.9,4.8,10.7,10.7,10.7s10.7-4.8,10.7-10.7v-32H288v32c0,5.9,4.8,10.7,10.7,10.7s10.7-4.8,10.7-10.7v-32H352v32 c0,5.9,4.8,10.7,10.7,10.7s10.7-4.8,10.7-10.7v-32H384c23.5,0,42.7-19.1,42.7-42.7v-10.7h32c5.9,0,10.7-4.8,10.7-10.7 s-4.8-10.7-10.7-10.7h-32v-42.7h32c5.9,0,10.7-4.8,10.7-10.7s-4.8-10.7-10.7-10.7h-32v-42.7h32c5.9,0,10.7-4.8,10.7-10.7 s-4.8-10.7-10.7-10.7h-32v-42.7L458.7,181.3L458.7,181.3z M405.3,384c0,11.8-9.6,21.3-21.3,21.3H85.3c-11.8,0-21.3-9.6-21.3-21.3 V85.3C64,73.6,73.6,64,85.3,64H384c11.8,0,21.3,9.6,21.3,21.3V384z"/>
		<path d="M373.3,85.3H96c-5.9,0-10.7,4.8-10.7,10.7v277.3c0,5.9,4.8,10.7,10.7,10.7h277.3c5.9,0,10.7-4.8,10.7-10.7 V96C384,90.1,379.2,85.3,373.3,85.3z M362.7,362.7h-256v-256h256V362.7z"/>
	</g>
</svg>
