<svg xmlns="http://www.w3.org/2000/svg" viewBox="0 0 512 512">
	<g>
		<path d="M405.3,0H106.7C83.1,0,64,19.1,64,42.7v426.7c0,23.5,19.1,42.7,42.7,42.7h298.7c23.5,0,42.7-19.1,42.7-42.7 V42.7C448,19.1,428.9,0,405.3,0z M426.7,469.3c0,11.8-9.6,21.3-21.3,21.3H106.7c-11.8,0-21.3-9.6-21.3-21.3V42.7 c0-11.8,9.6-21.3,21.3-21.3h298.7c11.8,0,21.3,9.6,21.3,21.3V469.3z"/>
		<path d="M256,64c-82.3,0-149.3,67-149.3,149.3c0,82.2,66.7,149,148.8,149.3c9.9,22.9,19.7,45.8,25,58.6 c2.3,5.6,5.5,10.4,9.4,14.3c8.3,8.3,19.2,12.5,30.2,12.5s21.9-4.2,30.2-12.5c8.1-8.1,12.5-18.8,12.5-30.2s-4.4-22.1-13-30.6 l-30.3-26.6c52-24.4,86-76.3,86-134.8C405.3,131,338.3,64,256,64z M335.1,390.2c4,4,6.2,9.4,6.2,15.1s-2.2,11.1-6.2,15.1 c-8.3,8.3-21.9,8.3-30.2,0c-2-2-3.5-4.4-4.8-7.3c-7.4-18-23.7-55.6-36.7-85.6L335.1,390.2z M301.6,332.5L241.7,280 c-3.8-3.3-9.3-3.5-13.3-0.6c-4,2.9-5.5,8.3-3.5,12.9c0,0,9.6,22,21.1,48.6c-65.9-5.1-118-60.3-118-127.5c0-70.6,57.4-128,128-128 s128,57.4,128,128C384,266.6,351,313.6,301.6,332.5z"/>
		<path d="M256,149.3c-35.3,0-64,28.7-64,64s28.7,64,64,64s64-28.7,64-64C320,178,291.3,149.3,256,149.3z M256,256 c-23.5,0-42.7-19.1-42.7-42.7s19.1-42.7,42.7-42.7s42.7,19.1,42.7,42.7S279.5,256,256,256z"/>
		<circle cx="149.3" cy="426.7" r="21.3"/>
	</g>
</svg>
