<svg xmlns="http://www.w3.org/2000/svg" viewBox="0 0 512 512">
  <g>
  		<path d="M480.4,84.3l-0.7-0.1C402,70.6,328.5,42.7,261.2,1.5c-3.2-2-7.3-2-10.5,0C183.9,42.7,110.9,70.4,33.6,84 l-2,0.4c-4.8,0.8-8.3,5-8.3,9.8v130.9c0,66.7,23,132,64.8,184s100.7,88.4,165.8,102.7c0.7,0.2,1.4,0.2,2.1,0.2    c0.7,0,1.4-0.1,2.1-0.2c65.1-14.3,124-50.8,165.8-102.8s64.8-117.3,64.8-184V94.2C488.7,89.3,485.2,85.2,480.4,84.3z M468.7,224.9    c0,126.7-89.3,238.6-212.7,266.8C132.6,463.6,43.3,351.8,43.3,225.1V102.6c75.5-14,147-41.2,212.7-80.8    c65.8,39.5,137.3,66.7,212.7,80.8V224.9z"/>
  		<path d="M255.8,72.7c1.7,0,3.4-0.4,4.9-1.3l0.1-0.1c0,0,0.1,0,0.1-0.1c4.8-2.7,6.5-8.8,3.8-13.6s-8.8-6.5-13.6-3.8 l-0.2,0.1c-4.8,2.7-6.5,8.8-3.7,13.6C248.9,70.8,252.3,72.7,255.8,72.7z"/>
  		<path d="M211.7,74.2c-43.2,20.6-88.7,36.5-135.4,47.3c-4.5,1-7.8,5.1-7.8,9.7v93.7c0,10.8,0.7,21.8,2.2,32.5 c0.7,5,5,8.7,9.9,8.7c0.4,0,0.9,0,1.3-0.1c5.5-0.7,9.3-5.8,8.6-11.2c-1.3-9.9-2-19.9-2-29.9v-85.8c45.4-11,89.7-26.8,131.8-46.9 c5-2.4,7.1-8.3,4.7-13.3C222.7,74,216.7,71.8,211.7,74.2z"/>
  		<path d="M433.4,121.2c-5.5,0-10,4.5-10,10v93.7c0,88.9-52.5,170.5-133.8,207.8c-5,2.3-7.2,8.2-4.9,13.3 c1.7,3.7,5.3,5.8,9.1,5.8c1.4,0,2.8-0.3,4.2-0.9c42.9-19.7,79.3-51.2,105.2-91.1c26.3-40.5,40.2-87.1,40.2-134.8v-93.7 C443.4,125.7,439,121.2,433.4,121.2z"/>
  		<path d="M253.8,445.7l-0.4,0.1c-5.3,1.4-8.5,6.9-7.1,12.2c1.2,4.5,5.2,7.4,9.7,7.4c0.8,0,1.7-0.1,2.6-0.3l0.4-0.1 c5.3-1.4,8.5-6.9,7.1-12.2C264.6,447.4,259.2,444.2,253.8,445.7z"/>
      <polygon points="229.5,305.1 175.9,251.4 158,269.3 229.5,340.9 382.9,187.5 365,169.7"/>
  </g>
</svg>
