<svg xmlns="http://www.w3.org/2000/svg" viewBox="0 0 469.3 469.3">
	<g>
		<path d="M426.7,0h-384C19.1,0,0,19.1,0,42.7v384c0,23.5,19.1,42.7,42.7,42.7h384c23.5,0,42.7-19.1,42.7-42.7v-384 C469.3,19.1,450.2,0,426.7,0z M448,426.7c0,11.8-9.6,21.3-21.3,21.3h-384c-11.8,0-21.3-9.6-21.3-21.3v-384 c0-11.8,9.6-21.3,21.3-21.3h384c11.8,0,21.3,9.6,21.3,21.3V426.7z"/>
		<circle cx="64" cy="64" r="21.3"/>
		<circle cx="405.3" cy="64" r="21.3"/>
		<circle cx="64" cy="405.3" r="21.3"/>
		<circle cx="405.3" cy="405.3" r="21.3"/>
		<path d="M234.7,42.7c-105.9,0-192,86.1-192,192s86.1,192,192,192s192-86.1,192-192S340.5,42.7,234.7,42.7z  M234.7,405.3C140.6,405.3,64,328.8,64,234.7S140.6,64,234.7,64s170.7,76.6,170.7,170.7S328.8,405.3,234.7,405.3z"/>
		<path d="M326.4,117c-3.8-2.9-9.1-3-12.9-0.2c-27.6,20.4-44.9,44-54,58.9c-4.3-1.8-8.9-3-13.7-3.9 c-0.1-0.4-0.1-0.7-0.2-1c-2.1-11.4-6.5-35.1,5.9-70.9c1.1-3.2-0.4-6.7-2.3-9.5c-1.9-2.8-6-4.6-9.4-4.8 c-20.5-1.4-41.7,2.8-61.3,10.8c-4.4,1.8-7.1,6.3-6.6,11.1c3.9,34.3,15.8,61.2,24.1,76.5c-3.8,2.9-7.2,6.2-10.2,9.8 c-0.4-0.1-0.7-0.2-1-0.4c-10.9-3.7-33.7-11.4-58.7-40.5c-2.2-2.6-5.5-3.8-8.8-3.7c-3.4,0.2-6.4,2-8.2,4.9 c-11.7,18.2-19.2,38.4-22.2,60c-0.7,4.7,1.9,9.3,6.3,11.2c31.6,13.7,60.9,16.9,78.3,17.4c0.6,4.8,1.7,9.4,3.3,13.8 c-0.3,0.2-0.5,0.4-0.8,0.7c-8.7,7.6-26.8,23.5-64.5,30.6c-3.3,0.6-6.1,2.8-7.6,5.8s-1.4,6.6,0.1,9.6c9.8,19,24,36,40.9,49.2 c1.9,1.5,4.2,2.3,6.6,2.3c2.2,0,4.5-0.7,6.3-2.1c27.6-20.4,44.9-44,54-58.9c4.3,1.8,8.9,3,13.7,3.9c0.1,0.4,0.1,0.7,0.2,1 c2.1,11.4,6.5,35.1-5.9,70.9c-1.1,3.2,0.4,6.7,2.3,9.5c1.9,2.8,6,4.6,9.4,4.8c1.7,0.1,3.5,0.2,5.3,0.2c19.3,0,38.1-3.7,56.1-11 c4.4-1.8,7.1-6.3,6.6-11.1c-3.9-34.3-15.8-61.2-24.1-76.5c3.8-2.9,7.2-6.2,10.2-9.8c0.4,0.1,0.7,0.2,1,0.4 c10.9,3.7,33.7,11.4,58.7,40.5c2,2.4,5,3.7,8.1,3.7c0.2,0,0.5,0,0.7,0c3.4-0.2,6.4-2,8.2-4.9c11.7-18.2,19.2-38.4,22.2-60 c0.7-4.7-1.9-9.3-6.3-11.2c-31.6-13.8-60.9-16.8-78.3-17.3c-0.6-4.8-1.7-9.4-3.3-13.9c0.3-0.2,0.5-0.4,0.8-0.7 c8.7-7.6,26.8-23.5,64.5-30.6c3.3-0.6,6.1-2.8,7.6-5.8s1.4-6.6-0.1-9.6C357.3,146.9,343.6,130.4,326.4,117z M173.2,217.7 c-0.3,1.3-0.9,2.4-1.2,3.7c-14.1-0.4-37.2-2.8-62.7-12.5c2.2-10.9,5.8-21.3,10.7-31.2c22.5,22.4,42.7,30.6,54.6,34.7 C174.1,214.1,173.7,215.9,173.2,217.7z M296.1,251.7c0.4-1.3,0.9-2.5,1.2-3.8c14.1,0.4,37.2,2.8,62.7,12.5 c-2.2,10.9-5.8,21.3-10.7,31.2c-22.5-22.4-42.7-30.6-54.6-34.7C295.2,255.2,295.6,253.4,296.1,251.7z M194.3,113.2 c10.7-3.6,21.6-5.7,32.8-6.3c-8.1,30.7-5.2,52.4-3,64.7c-0.3,0.1-0.6,0.2-0.9,0.2c-1.8,0.3-3.6,0.9-5.4,1.4 c-1,0.3-1.9,0.4-2.9,0.7C208.2,161.5,198.6,140.2,194.3,113.2z M149.7,330.2c-8.2-7.3-15.5-15.7-21.6-24.9 c30.6-8.3,47.8-21.7,57.3-29.9c0.7,0.8,1.5,1.5,2.2,2.3c1.1,1.2,2.3,2.4,3.5,3.6c0.3,0.2,0.5,0.5,0.8,0.8 C184.6,294.2,170.9,313,149.7,330.2z M275,356.1c-10.7,3.6-21.6,5.7-32.8,6.3c8.1-30.7,5.2-52.4,3-64.7c0.3-0.1,0.6-0.2,0.9-0.2 c1.8-0.3,3.6-0.9,5.4-1.4c1-0.3,1.9-0.4,2.9-0.7C261.1,307.8,270.7,329.1,275,356.1z M234.7,277.3c-23.6,0-42.7-19.1-42.7-42.7 s19.1-42.7,42.7-42.7s42.7,19.1,42.7,42.7C277.3,258.2,258.2,277.3,234.7,277.3z M283.9,193.8c-0.7-0.8-1.5-1.5-2.2-2.3 c-1.1-1.2-2.3-2.4-3.5-3.6c-0.3-0.2-0.5-0.5-0.8-0.8c7.4-12,21-30.9,42.2-48.1c8.3,7.4,15.5,15.7,21.6,24.9 C310.6,172.2,293.4,185.6,283.9,193.8z"/>
	</g>
</svg>
