<svg xmlns="http://www.w3.org/2000/svg" viewBox="0 0 512 512">
	<g>
		<path d="M508.9,173.8L396,60.9c-2-2-4.7-3.1-7.5-3.1s-5.6,1.1-7.6,3.1c-6.1,6.2-18.2,1.2-18.2-7.6 c0-2.8,1.1-5.5,3.1-7.5c4.2-4.2,4.2-10.9,0-15.1L338.2,3.1C334-1,327.3-1,323.1,3.1l-320,320c-4.2,4.2-4.2,10.9,0,15.1l27.6,27.6 c2,2,4.7,3.1,7.5,3.1s5.6-1.1,7.6-3.1c6.1-6.1,18.2-1.2,18.2,7.6c0,2.8-1.1,5.5-3.1,7.5c-4.2,4.2-4.2,10.9,0,15.1l112.9,112.9 c2.1,2.1,4.8,3.1,7.5,3.1c2.7,0,5.5-1,7.5-3.1l85.8-85.8c2-2,3.1-4.7,3.1-7.5c0-2.8-1.1-5.5-3.1-7.5l-25.1-25.1 c-1.5-1.5-1.5-3.8,0-5.3s3.8-1.5,5.3,0l25.1,25.1c4.2,4.2,10.9,4.2,15.1,0l213.8-213.8C513,184.7,513,178,508.9,173.8z M469.3,198.2l-24.5-24.5c-4.2-4.2-10.9-4.2-15.1,0c-4.2,4.2-4.2,10.9,0,15.1l24.5,24.5l-16.9,16.9l-24.5-24.5 c-4.2-4.2-10.9-4.2-15.1,0c-4.2,4.2-4.2,10.9,0,15.1l24.5,24.5l-16.9,16.9l-24.5-24.5c-4.2-4.2-10.9-4.2-15.1,0 c-4.2,4.2-4.2,10.9,0,15.1l24.5,24.5l-16.9,16.9l-24.5-24.5c-4.2-4.2-10.9-4.2-15.1,0c-4.2,4.2-4.2,10.9,0,15.1l24.5,24.5 l-16.9,16.9l-24.5-24.5c-4.2-4.2-10.9-4.2-15.1,0c-4.2,4.2-4.2,10.9,0,15.1l24.5,24.5l-16.9,16.9l-24.5-24.5 c-4.2-4.2-10.9-4.2-15.1,0c-4.2,4.2-4.2,10.9,0,15.1l24.5,24.5l-6.7,6.7l-17.6-17.6c-9.8-9.8-25.7-9.8-35.5,0 c-9.8,9.8-9.8,25.7,0,35.4c0,0,0,0,0,0l17.6,17.6l-6.7,6.7l-24.5-24.5c-4.2-4.2-10.9-4.2-15.1,0c-4.2,4.2-4.2,10.9,0,15.1 l24.5,24.5l-16.9,16.9l-24.5-24.5c-4.2-4.2-10.9-4.2-15.1,0c-4.2,4.2-4.2,10.9,0,15.1l24.5,24.5l-16.9,16.9l-99.1-99.1 c2-4.2,3.1-8.9,3.1-13.8c0-17.6-14.4-32-32-32c-4.9,0-9.6,1.1-13.8,3.1l-13.8-13.8L330.7,25.8l13.8,13.8c-2,4.2-3.1,8.9-3.1,13.8 c0,17.6,14.4,32,32,32c4.9,0,9.6-1.1,13.8-3.1l99.1,99.1L469.3,198.2z"/>
		<path d="M156.9,269.8c-4.2-4.2-10.9-4.2-15.1,0l-53.3,53.3c-4.2,4.2-4.2,10.9,0,15.1l64,64c2.1,2.1,4.8,3.1,7.5,3.1 s5.5-1,7.5-3.1l53.3-53.3c4.2-4.2,4.2-10.9,0-15.1L156.9,269.8z M160,379.6l-48.9-48.9l38.3-38.2l48.9,48.9L160,379.6z"/>
		<path d="M247.5,179.1c-4.2-4.2-10.9-4.2-15.1,0l-53.3,53.3c-4.2,4.2-4.2,10.9,0,15.1l64,64c2.1,2.1,4.8,3.1,7.5,3.1 c2.7,0,5.5-1,7.5-3.1l53.3-53.3c4.2-4.2,4.2-10.9,0-15.1L247.5,179.1z M250.7,288.9L201.8,240l38.2-38.2l48.9,48.9L250.7,288.9z"/>
		<path d="M323.1,88.5l-53.3,53.3c-4.2,4.2-4.2,10.9,0,15.1l64,64c2.1,2.1,4.8,3.1,7.5,3.1s5.5-1,7.5-3.1l53.3-53.3 c4.2-4.2,4.2-10.9,0-15.1l-64-64C334,84.3,327.3,84.3,323.1,88.5z M341.3,198.2l-48.9-48.9l38.2-38.2l48.9,48.9L341.3,198.2z"/>
	</g>
</svg>
